<svg version="1.1" xmlns="http://www.w3.org/2000/svg" xmlns:xlink="http://www.w3.org/1999/xlink" width="800" height="800"><defs/><g transform="scale(2,2)"><g id="background-9caa2d90"><rect fill="white" stroke="none" x="0" y="0" width="400" height="400" class="dcg-svg-background"/></g><g id="graphpaper-9caa2d90"><g id="axis-9caa2d90"><g id="yaxis-9caa2d90"><title>$price_a$</title><g><path fill="none" stroke="rgb(0,0,0)" class="dcg-svg-axis-line" paint-order="fill stroke markers" d=" M 0 4 L 0 400" stroke-opacity="0.9" stroke-miterlimit="10" stroke-width="2" stroke-dasharray=""/><g class="dcg-svg-axis-line"><path fill="rgb(0,0,0)" stroke="rgb(0,0,0)" class="dcg-svg-axis-line" paint-order="stroke fill markers" d=" M 0 2 L 4.141104721640332 17.45481322062509 L -4.14110472164033 17.45481322062509 L 0 2 L 4.141104721640332 17.45481322062509" stroke-opacity="0.9" stroke-linejoin="round" stroke-miterlimit="10" stroke-width="2" stroke-dasharray="" fill-opacity="0.9"/></g></g></g><g id="xaxis-9caa2d90"><title>p</title><g><path fill="none" stroke="rgb(0,0,0)" class="dcg-svg-axis-line" paint-order="fill stroke markers" d=" M 0 400 L 396 400" stroke-opacity="0.9" stroke-miterlimit="10" stroke-width="2" stroke-dasharray=""/><g class="dcg-svg-axis-line"><path fill="rgb(0,0,0)" stroke="rgb(0,0,0)" class="dcg-svg-axis-line" paint-order="stroke fill markers" d=" M 398 400 L 382.5451867793749 404.1411047216403 L 382.5451867793749 395.8588952783597 L 398 400 L 382.5451867793749 404.1411047216403" stroke-opacity="0.9" stroke-linejoin="round" stroke-miterlimit="10" stroke-width="2" stroke-dasharray="" fill-opacity="0.9"/></g></g></g><g><g class="dcg-svg-axis-value"><text fill="none" stroke="#ffffff" font-family="Arial" font-size="17px" font-style="normal" font-weight="normal" text-decoration="normal" x="-9.727294921875" y="418.124" text-anchor="middle" stroke-miterlimit="2" stroke-width="3" stroke-dasharray="">0</text><text fill="#000000" stroke="none" font-family="Arial" font-size="17px" font-style="normal" font-weight="normal" text-decoration="normal" x="-9.727294921875" y="418.124" text-anchor="middle">0</text></g><g><path fill="none" stroke="rgb(0,0,0)" class="dcg-svg-tickmark" paint-order="fill stroke markers" d=" M 198 396 L 198 404 M 396 396 L 396 404 M -4 320 L 4 320 M -4 240 L 4 240 M -4 160 L 4 160 M -4 80 L 4 80 M -4 0 L 4 0" stroke-opacity="0.9" stroke-miterlimit="2" stroke-width="2" stroke-dasharray=""/></g><g class="dcg-svg-axis-value"><text fill="none" stroke="#ffffff" font-family="Arial" font-size="17px" font-style="normal" font-weight="normal" text-decoration="normal" x="198.01980198019803" y="393.124" text-anchor="middle" stroke-miterlimit="2" stroke-width="3" stroke-dasharray="">0.5</text><text fill="rgb(150,150,150)" stroke="none" font-family="Arial" font-size="17px" font-style="normal" font-weight="normal" text-decoration="normal" x="198.01980198019803" y="393.124" text-anchor="middle" fill-opacity="1">0.5</text></g><g class="dcg-svg-axis-value dcg-svg-offcenter-axis-value"><text fill="none" stroke="#ffffff" font-family="Arial" font-size="17px" font-style="normal" font-weight="normal" text-decoration="normal" x="392.272705078125" y="393.124" text-anchor="middle" stroke-miterlimit="2" stroke-width="3" stroke-dasharray="">1</text><text fill="rgb(150,150,150)" stroke="none" font-family="Arial" font-size="17px" font-style="normal" font-weight="normal" text-decoration="normal" x="392.272705078125" y="393.124" text-anchor="middle" fill-opacity="1">1</text></g><g class="dcg-svg-axis-value"><text fill="none" stroke="#ffffff" font-family="Arial" font-size="17px" font-style="normal" font-weight="normal" text-decoration="normal" x="7.727294921875" y="324.624" text-anchor="middle" stroke-miterlimit="2" stroke-width="3" stroke-dasharray="">1</text><text fill="rgb(150,150,150)" stroke="none" font-family="Arial" font-size="17px" font-style="normal" font-weight="normal" text-decoration="normal" x="7.727294921875" y="324.624" text-anchor="middle" fill-opacity="1">1</text></g><g class="dcg-svg-axis-value"><text fill="none" stroke="#ffffff" font-family="Arial" font-size="17px" font-style="normal" font-weight="normal" text-decoration="normal" x="7.727294921875" y="244.624" text-anchor="middle" stroke-miterlimit="2" stroke-width="3" stroke-dasharray="">2</text><text fill="rgb(150,150,150)" stroke="none" font-family="Arial" font-size="17px" font-style="normal" font-weight="normal" text-decoration="normal" x="7.727294921875" y="244.624" text-anchor="middle" fill-opacity="1">2</text></g><g class="dcg-svg-axis-value"><text fill="none" stroke="#ffffff" font-family="Arial" font-size="17px" font-style="normal" font-weight="normal" text-decoration="normal" x="7.727294921875" y="164.624" text-anchor="middle" stroke-miterlimit="2" stroke-width="3" stroke-dasharray="">3</text><text fill="rgb(150,150,150)" stroke="none" font-family="Arial" font-size="17px" font-style="normal" font-weight="normal" text-decoration="normal" x="7.727294921875" y="164.624" text-anchor="middle" fill-opacity="1">3</text></g><g class="dcg-svg-axis-value"><text fill="none" stroke="#ffffff" font-family="Arial" font-size="17px" font-style="normal" font-weight="normal" text-decoration="normal" x="7.727294921875" y="84.624" text-anchor="middle" stroke-miterlimit="2" stroke-width="3" stroke-dasharray="">4</text><text fill="rgb(150,150,150)" stroke="none" font-family="Arial" font-size="17px" font-style="normal" font-weight="normal" text-decoration="normal" x="7.727294921875" y="84.624" text-anchor="middle" fill-opacity="1">4</text></g><g class="dcg-svg-axis-value dcg-svg-offcenter-axis-value"><text fill="none" stroke="#ffffff" font-family="Arial" font-size="17px" font-style="normal" font-weight="normal" text-decoration="normal" x="7.727294921875" y="16.124000000000002" text-anchor="middle" stroke-miterlimit="2" stroke-width="3" stroke-dasharray="">5</text><text fill="rgb(150,150,150)" stroke="none" font-family="Arial" font-size="17px" font-style="normal" font-weight="normal" text-decoration="normal" x="7.727294921875" y="16.124000000000002" text-anchor="middle" fill-opacity="1">5</text></g></g><g class="dcg-svg-axis-label"><text fill="none" stroke="#ffffff" font-family="Times" font-size="24px" font-style="italic" font-weight="normal" text-decoration="normal" x="373" y="371.5" text-anchor="start" stroke-miterlimit="2" stroke-width="3" stroke-dasharray="">p</text><text fill="#000000" stroke="none" font-family="Times" font-size="24px" font-style="italic" font-weight="normal" text-decoration="normal" x="373" y="371.5" text-anchor="start">p</text></g><g class="dcg-svg-axis-label" transform="translate(29.45458984375,102.841796875) rotate(-90,0,0)"><text fill="none" stroke="#ffffff" font-family="Arial" font-size="20px" font-style="normal" font-weight="normal" text-decoration="normal" x="0" y="0" text-anchor="start" stroke-miterlimit="2" stroke-width="3" stroke-dasharray="">$price_a$</text><text fill="#000000" stroke="none" font-family="Arial" font-size="20px" font-style="normal" font-weight="normal" text-decoration="normal" x="0" y="0" text-anchor="start">$price_a$</text></g></g></g><g id="expressions-9caa2d90"><g id="sketch-9caa2d90"><title>表达式1</title><path fill="#000000" stroke="none" paint-order="stroke fill markers" d="" fill-opacity="0.4"/><g><path fill="none" stroke="#000000" class="dcg-svg-curve" paint-order="fill stroke markers" d=" M 0 360 L 0 360 L 12.890625 357.2632117211254 L 25 354.4281466719418 L 36.42578125 351.48629163776866 L 47.16796875 348.45270208164993 L 57.32421875 345.31510545159176 L 66.9921875 342.05442778357514 L 76.171875 338.680815186784 L 84.86328125000001 335.2075894423497 L 93.1640625 331.607446422078 L 101.07421875 327.8900624959583 L 108.69140625000001 324.01632907381475 L 115.91796875000001 320.04531425443884 L 122.8515625 315.935263271896 L 129.58984375 311.6296532802156 L 136.03515625 307.1940817756242 L 142.28515625 302.56614179927 L 148.33984375 297.74464657745375 L 154.19921875 292.72968039809064 L 159.96093750000003 287.42972168464263 L 165.52734375 281.92738868845265 L 170.99609375 276.1191319605715 L 176.3671875 269.9871820163238 L 181.640625 263.5128388248933 L 186.81640625000003 256.67645039740785 L 191.89453125 249.45739663871967 L 196.77734375 241.98907258711822 L 201.3671875 234.45030428737127 L 205.859375 226.53714320861394 L 210.15625 218.42492743337476 L 214.2578125 210.13869211027628 L 218.26171875 201.49028991737248 L 222.16796875 192.47054320405772 L 225.9765625 183.071135644973 L 229.6875 173.2848040720313 L 233.30078125 163.10554971460988 L 236.81640625 152.52886906687334 L 240.234375 141.55200421398683 L 243.65234375 129.8282694333816 L 246.97265625 117.65863598009895 L 250.1953125 105.04323828934355 L 253.41796875 91.56304750202173 L 256.54296875 77.58906569556689 L 259.66796875 62.64346277248444 L 262.6953125 47.15142298994664 L 265.72265625 30.567220274357453 L 268.65234375 13.379184791033651 L 271.58203125 -5.036883713604539 L 271.7991773485709 -6.5" stroke-linecap="round" stroke-linejoin="round" stroke-miterlimit="10" stroke-width="3.5" stroke-dasharray=""/></g></g><g id="sketch-9caa2d90"><title>表达式4</title><path fill="#000000" stroke="none" paint-order="stroke fill markers" d="" fill-opacity="0.4"/><g><path fill="none" stroke="#000000" class="dcg-svg-curve" paint-order="fill stroke markers" d=" M 0 376 L 15.273112283188043 374.02717431456034 M 24.972518289723425 372.6276278591802 L 31.542968750000004 371.6664214486081 M 31.542968750000004 371.6664214486081 L 40.185888002859805 370.2413705759375 M 49.840500824326824 368.56226960090896 L 58.49609375 366.9608434371787 M 58.49609375 366.9608434371787 L 64.95686536057912 365.62459867345257 M 74.53447910426391 363.5515207379035 L 81.8359375 361.87007248141924 M 81.8359375 361.87007248141924 L 89.49725754733947 359.91260755500986 M 98.94749701255977 357.3203072327771 L 102.24609375 356.38819310026474 M 102.24609375 356.38819310026474 L 111.52343750000001 353.4976843291761 M 111.52343750000001 353.4976843291761 L 113.65668381694368 352.76665750307836 M 122.89983414787056 349.512860823719 L 128.61328125 347.3643280258604 M 128.61328125 347.3643280258604 L 136.42578125 344.14875575193093 M 136.42578125 344.14875575193093 L 137.1988444712476 343.8013071157516 M 146.10202949088801 339.708259555992 L 150.9765625 337.31944425710304 M 150.9765625 337.31944425710304 L 157.71484375 333.72493728956954 M 157.71484375 333.72493728956954 L 159.7346514899353 332.55430047938813 M 168.12550922376528 327.49447004113694 L 170.41015625 326.05702563893044 M 170.41015625 326.05702563893044 L 176.3671875 321.99230920979426 M 176.3671875 321.99230920979426 L 180.78130574025195 318.72952211315686 M 188.44739441306652 312.62763885669506 L 193.06640625 308.628429595355 M 193.06640625 308.628429595355 L 198.33984375 303.68893357987565 M 198.33984375 303.68893357987565 L 199.79025987255665 302.2193948469922 M 206.54291399793175 295.1197423509381 L 208.39843750000003 293.08657839874667 M 208.39843750000003 293.08657839874667 L 213.28125000000003 287.29738289186025 M 213.28125000000003 287.29738289186025 L 216.3996706326896 283.29476973194016 M 222.2053869154244 275.40138797928165 L 222.75390625 274.63882959113295 M 222.75390625 274.63882959113295 L 227.24609375 267.8774378075094 M 227.24609375 267.8774378075094 L 230.5669400457066 262.4732031638052 M 235.4686283932475 253.98810957549512 L 235.64453125000003 253.67907724756432 M 235.64453125000003 253.67907724756432 L 239.55078125000003 246.28302470894477 M 239.55078125000003 246.28302470894477 L 242.4926278945704 240.28549692420262 M 246.6063434663346 231.39140954893452 L 247.07031250000003 230.37300342462672 M 247.07031250000003 230.37300342462672 L 250.5859375 222.0741165967466 M 250.5859375 222.0741165967466 L 252.51875117315902 217.17344179680217 M 255.98715454950505 208.0084458541708 L 257.32421875 204.36830746019797 M 257.32421875 204.36830746019797 L 260.546875 194.9515471215628 M 260.546875 194.9515471215628 L 261.0232806785247 193.4564807081922 M 263.9840800489806 184.11459237463336 L 266.89453125 174.29935793494562 M 266.89453125 174.29935793494562 L 268.2683477891955 169.3231698930338 M 270.8142653357177 159.8600228176226 L 272.94921875 151.54930543948575 M 272.94921875 151.54930543948575 L 274.5338389085362 144.91653004237332 M 276.74952563493855 135.37058952328948 L 278.7109375 126.54856445007346 M 278.7109375 126.54856445007346 L 279.9994341387238 120.31783515069922 M 281.9541857825275 110.71493454910461 L 284.27734375 98.63131395272256 M 284.27734375 98.63131395272256 L 284.82165572858264 95.58446780031667 M 286.5451168114809 85.93720487782228 L 287.01171875 83.32534921963168 M 287.01171875 83.32534921963168 L 289.0954057394317 70.75001699774805 M 290.6296278004119 61.071022107180184 L 292.3828125 49.65739632101611 M 292.3828125 49.65739632101611 L 292.9256169207711 45.84331691621146 M 294.30640046693105 36.1410781643226 L 295.01953125 31.130180447661417 M 295.01953125 31.130180447661417 L 296.3703889332605 20.880201151485487 M 297.64410543301045 11.163357660788938 L 299.50876532143445 -4.123337322120305" stroke-linecap="round" stroke-linejoin="round" stroke-miterlimit="10" stroke-width="3.5" stroke-dasharray=""/></g></g><g id="sketch-9caa2d90"><title>表达式5</title><path fill="#000000" stroke="none" paint-order="stroke fill markers" d="" fill-opacity="0.4"/><g><path fill="none" stroke="#000000" class="dcg-svg-curve" paint-order="fill stroke markers" d=" M 0 344 L 0.13427632832665662 343.9603784446152 M 10.876382594459185 340.79065401383 L 11.010658922785842 340.7510324584452 M 21.67387583493733 337.3254945762613 L 21.806092760380547 337.2794654047899 M 32.37478082680817 333.57322872199376 L 32.5057764049601 333.5238307614626 M 42.963931179288736 329.51722209939066 L 43.09356503974846 329.4643537513712 M 53.423858942278315 325.13958053988557 L 53.55198046735881 325.0831458447854 M 63.735320311645644 320.42331776287466 L 63.86177755280195 320.3632464206295 M 73.87751335482855 315.3530819199689 L 74.00214521944957 315.28930968211347 M 83.80926720759761 309.8823767444507 L 83.92973663490018 309.8110527156428 M 93.50100065494152 303.9971172788176 L 93.61914220865572 303.9220002149373 M 102.94776980527793 297.7263999407015 L 103.06341420574172 297.64749257322944 M 112.09671020613861 291.0290798557962 L 112.20690084315753 290.9427200068306 M 120.92223793644743 283.9107422557594 L 121.02948247074144 283.8207499790682 M 129.4333874052872 276.41907642910513 L 129.5375304110499 276.3255123636168 M 137.5488301882582 268.5006514184995 L 137.64637301234498 268.4002253388729 M 145.3087204885505 260.23371866622335 L 145.40277584057804 260.1300191447443 M 152.71083304010054 251.6444392944744 L 152.801293838903 251.53758966237388 M 159.69507186148178 242.71197639826275 L 159.77811445690998 242.59926469814005 M 166.31090180646748 233.50359156594126 L 166.39020512704053 233.3882183309771 M 172.57233318271915 224.05063703745068 L 172.64795877094798 223.93282035609766 M 178.49002822299013 214.37837603186387 L 178.56206415668123 214.25833093926425 M 184.06810613725736 204.5059238830638 L 184.13331514740466 204.38203770548287 M 189.3018017741579 194.44654927156557 L 189.3637719754917 194.32101165112195 M 194.242660980945 184.24035355071794 L 194.30147944450948 184.1133087226299 M 198.90756536367104 173.90512546290873 L 198.96336518489016 173.77672616403248 M 203.3109657426437 163.45574021742874 L 203.36388622915447 163.3261276327486 M 207.47082439076374 152.9069546580369 L 207.520976184094 152.77624583038644 M 211.403427557903 142.2712767466608 L 211.45092571743373 142.13958041094415 M 215.12478050119242 131.55979205781114 L 215.1697429476249 131.4272085806701 M 218.64882546657077 120.78174964512888 L 218.6913393058942 120.64836083950418 M 221.99372249258698 109.94674691739179 L 222.03387832022202 109.81262939613917 M 225.1728145814032 99.06187685366064 L 225.21073450256904 98.92711009374271 M 228.19890599669463 88.13337707029962 L 228.2346807451951 87.99802505749697 M 231.0886461507024 77.16781052032361 L 231.12236749310392 77.03193237246076 M 233.82007488522453 66.16168054343224 L 233.85379622762605 66.02580239556939 M 236.42662118563348 55.12549869293332 L 236.4584076801981 54.989154940735816 M 238.92544139825304 44.06450336289544 L 238.95538094195024 43.927742170581226 M 241.33086012256408 32.98266986295655 L 241.35904002096288 32.845535281882945 M 243.61343189286816 21.87476879599476 L 243.64161179126697 21.737634214921158 M 245.7974821790215 10.747247932646355 L 245.8239872943617 10.609779831398091 M 247.9153726710856 -0.3930904950089258 L 247.94028658537138 -0.5308558639336356" stroke-linecap="round" stroke-linejoin="round" stroke-miterlimit="10" stroke-width="7" stroke-dasharray=""/></g></g><g id="sketch-9caa2d90"><title>表达式6</title><path fill="#388c46" stroke="none" paint-order="stroke fill markers" d="" fill-opacity="0.4"/><g><path fill="none" stroke="#388c46" class="dcg-svg-curve" paint-order="fill stroke markers" d=" M 24.982764711013676 -6.5 L 24.982764711013676 -6.5 L 25 -6.221319173188135 L 26.660156250000004 17.362464584371878 L 28.3203125 38.166700308661575 L 30.078125 57.67638898415396 L 31.8359375 75.01670954252654 L 33.69140625 91.3418529893425 L 35.546875 105.947380868077 L 37.50000000000001 119.74421473220161 L 39.453125 132.15921539529012 L 41.50390625 143.92095298607762 L 43.65234375000001 155.03997198297228 L 45.80078125 165.0984848191487 L 48.046875 174.63437562528543 L 50.390625 183.65943217132465 L 52.734375 191.86325086616688 L 55.17578125 199.64804378488117 L 57.71484375 207.02471915297568 L 60.3515625 214.0061432966752 L 63.08593750000001 220.6065320406395 L 65.91796875 226.8409538904092 L 68.94531250000001 232.91199279003632 L 72.0703125 238.61515950788257 L 75.390625 244.1252451181654 L 78.90625 249.41917790818286 L 82.6171875 254.48005312265133 L 86.5234375 259.29618090052406 L 90.52734375 263.75688395744004 L 94.62890625000001 267.88853580880607 L 98.828125 271.71471188880287 L 103.22265625 275.3329311269514 L 107.71484375 278.67075551496424 L 112.40234375 281.80901830291214 L 117.1875 284.6897872179041 L 122.16796875 287.37920709296026 L 127.34375 289.87538867977736 L 132.8125 292.2162148244311 L 138.4765625 294.35154033376045 L 144.3359375 296.28084512772574 L 150.48828125 298.0286829561286 L 156.8359375 299.5593366884606 L 163.37890625 300.8702574853248 L 170.21484375 301.97112912149765 L 177.14843750000003 302.8243561261849 L 184.27734375000003 303.4388384409223 L 191.50390625000003 303.7997423996617 L 198.82812500000003 303.9023026299786 L 206.15234375000003 303.7415456975075 L 213.37890625 303.3222817700144 L 220.5078125 302.64837114061976 L 227.44140625 301.7346220433615 L 234.27734375000003 300.5704461235018 L 240.8203125 299.1945120194306 L 247.16796875 297.59554717502743 L 253.3203125 295.77538668621844 L 259.1796875 293.7703486466939 L 264.84375 291.55409701500116 L 270.21484375 289.17246479783586 L 275.390625 286.59030407097276 L 280.37109375 283.8084324798335 L 285.15625 280.8281339151357 L 289.74609375 277.6514999062019 L 294.140625 274.28180258675906 L 298.4375 270.636899580176 L 302.5390625 266.79289007093803 L 306.54296875 262.65118336682315 L 310.44921875 258.1898108412385 L 314.2578125 253.3843649724765 L 317.96875 248.20774277860042 L 321.484375 242.78824698281932 L 324.80468750000006 237.14249351820297 L 327.9296875 231.29346495837783 L 330.859375 225.27153490259408 L 333.69140625 218.88514917343326 L 336.42578125 212.11731962017805 L 339.06250000000006 204.95139092830814 L 341.6015625 197.37144468112842 L 344.04296875 189.36280564759815 L 346.38671875000006 180.91266763649256 L 348.6328125 172.01085690046432 L 350.78125 162.6507506496011 L 352.9296875 152.339003679031 L 354.98046875 141.47131806011788 L 356.93359375 130.0445780119714 L 358.88671875 117.39941531384841 L 360.7421875 104.07399236381468 L 362.59765625 89.2533664029612 L 364.35546875 73.59572497007616 L 366.11328125000006 56.08259914400901 L 367.7734375 37.52695402875224 L 369.43359375 16.639952211141804 L 370.99609375000006 -5.563115119234169 L 371.0542458608698 -6.5" stroke-linecap="round" stroke-linejoin="round" stroke-miterlimit="10" stroke-width="3.5" stroke-dasharray=""/></g></g></g><g id="labels-9caa2d90"/><g id="labels-9caa2d90"/></g></svg>