<svg version="1.1" xmlns="http://www.w3.org/2000/svg" xmlns:xlink="http://www.w3.org/1999/xlink" width="800" height="800"><defs/><g transform="scale(2,2)"><g id="background-1a490071"><rect fill="white" stroke="none" x="0" y="0" width="400" height="400" class="dcg-svg-background"/></g><g id="graphpaper-1a490071"><g id="axis-1a490071"><g id="yaxis-1a490071"><title>$price_a$</title><g><path fill="none" stroke="rgb(0,0,0)" class="dcg-svg-axis-line" paint-order="fill stroke markers" d=" M 0 4 L 0 400" stroke-opacity="0.9" stroke-miterlimit="10" stroke-width="2" stroke-dasharray=""/><g class="dcg-svg-axis-line"><path fill="rgb(0,0,0)" stroke="rgb(0,0,0)" class="dcg-svg-axis-line" paint-order="stroke fill markers" d=" M 0 2 L 4.141104721640332 17.45481322062509 L -4.14110472164033 17.45481322062509 L 0 2 L 4.141104721640332 17.45481322062509" stroke-opacity="0.9" stroke-linejoin="round" stroke-miterlimit="10" stroke-width="2" stroke-dasharray="" fill-opacity="0.9"/></g></g></g><g id="xaxis-1a490071"><title>p</title><g><path fill="none" stroke="rgb(0,0,0)" class="dcg-svg-axis-line" paint-order="fill stroke markers" d=" M 0 400 L 396 400" stroke-opacity="0.9" stroke-miterlimit="10" stroke-width="2" stroke-dasharray=""/><g class="dcg-svg-axis-line"><path fill="rgb(0,0,0)" stroke="rgb(0,0,0)" class="dcg-svg-axis-line" paint-order="stroke fill markers" d=" M 398 400 L 382.5451867793749 404.1411047216403 L 382.5451867793749 395.8588952783597 L 398 400 L 382.5451867793749 404.1411047216403" stroke-opacity="0.9" stroke-linejoin="round" stroke-miterlimit="10" stroke-width="2" stroke-dasharray="" fill-opacity="0.9"/></g></g></g><g><g class="dcg-svg-axis-value"><text fill="none" stroke="#ffffff" font-family="Arial" font-size="17px" font-style="normal" font-weight="normal" text-decoration="normal" x="-9.727294921875" y="418.124" text-anchor="middle" stroke-miterlimit="2" stroke-width="3" stroke-dasharray="">0</text><text fill="#000000" stroke="none" font-family="Arial" font-size="17px" font-style="normal" font-weight="normal" text-decoration="normal" x="-9.727294921875" y="418.124" text-anchor="middle">0</text></g><g><path fill="none" stroke="rgb(0,0,0)" class="dcg-svg-tickmark" paint-order="fill stroke markers" d=" M 200 396 L 200 404 M 400 396 L 400 404 M -4 320 L 4 320 M -4 240 L 4 240 M -4 160 L 4 160 M -4 80 L 4 80 M -4 0 L 4 0" stroke-opacity="0.9" stroke-miterlimit="2" stroke-width="2" stroke-dasharray=""/></g><g class="dcg-svg-axis-value"><text fill="none" stroke="#ffffff" font-family="Arial" font-size="17px" font-style="normal" font-weight="normal" text-decoration="normal" x="200" y="393.124" text-anchor="middle" stroke-miterlimit="2" stroke-width="3" stroke-dasharray="">0.5</text><text fill="rgb(150,150,150)" stroke="none" font-family="Arial" font-size="17px" font-style="normal" font-weight="normal" text-decoration="normal" x="200" y="393.124" text-anchor="middle" fill-opacity="1">0.5</text></g><g class="dcg-svg-axis-value dcg-svg-offcenter-axis-value"><text fill="none" stroke="#ffffff" font-family="Arial" font-size="17px" font-style="normal" font-weight="normal" text-decoration="normal" x="392.272705078125" y="393.124" text-anchor="middle" stroke-miterlimit="2" stroke-width="3" stroke-dasharray="">1</text><text fill="rgb(150,150,150)" stroke="none" font-family="Arial" font-size="17px" font-style="normal" font-weight="normal" text-decoration="normal" x="392.272705078125" y="393.124" text-anchor="middle" fill-opacity="1">1</text></g><g class="dcg-svg-axis-value"><text fill="none" stroke="#ffffff" font-family="Arial" font-size="17px" font-style="normal" font-weight="normal" text-decoration="normal" x="7.727294921875" y="324.624" text-anchor="middle" stroke-miterlimit="2" stroke-width="3" stroke-dasharray="">1</text><text fill="rgb(150,150,150)" stroke="none" font-family="Arial" font-size="17px" font-style="normal" font-weight="normal" text-decoration="normal" x="7.727294921875" y="324.624" text-anchor="middle" fill-opacity="1">1</text></g><g class="dcg-svg-axis-value"><text fill="none" stroke="#ffffff" font-family="Arial" font-size="17px" font-style="normal" font-weight="normal" text-decoration="normal" x="7.727294921875" y="244.624" text-anchor="middle" stroke-miterlimit="2" stroke-width="3" stroke-dasharray="">2</text><text fill="rgb(150,150,150)" stroke="none" font-family="Arial" font-size="17px" font-style="normal" font-weight="normal" text-decoration="normal" x="7.727294921875" y="244.624" text-anchor="middle" fill-opacity="1">2</text></g><g class="dcg-svg-axis-value"><text fill="none" stroke="#ffffff" font-family="Arial" font-size="17px" font-style="normal" font-weight="normal" text-decoration="normal" x="7.727294921875" y="164.624" text-anchor="middle" stroke-miterlimit="2" stroke-width="3" stroke-dasharray="">3</text><text fill="rgb(150,150,150)" stroke="none" font-family="Arial" font-size="17px" font-style="normal" font-weight="normal" text-decoration="normal" x="7.727294921875" y="164.624" text-anchor="middle" fill-opacity="1">3</text></g><g class="dcg-svg-axis-value"><text fill="none" stroke="#ffffff" font-family="Arial" font-size="17px" font-style="normal" font-weight="normal" text-decoration="normal" x="7.727294921875" y="84.624" text-anchor="middle" stroke-miterlimit="2" stroke-width="3" stroke-dasharray="">4</text><text fill="rgb(150,150,150)" stroke="none" font-family="Arial" font-size="17px" font-style="normal" font-weight="normal" text-decoration="normal" x="7.727294921875" y="84.624" text-anchor="middle" fill-opacity="1">4</text></g><g class="dcg-svg-axis-value dcg-svg-offcenter-axis-value"><text fill="none" stroke="#ffffff" font-family="Arial" font-size="17px" font-style="normal" font-weight="normal" text-decoration="normal" x="7.727294921875" y="16.124000000000002" text-anchor="middle" stroke-miterlimit="2" stroke-width="3" stroke-dasharray="">5</text><text fill="rgb(150,150,150)" stroke="none" font-family="Arial" font-size="17px" font-style="normal" font-weight="normal" text-decoration="normal" x="7.727294921875" y="16.124000000000002" text-anchor="middle" fill-opacity="1">5</text></g></g><g class="dcg-svg-axis-label"><text fill="none" stroke="#ffffff" font-family="Times" font-size="24px" font-style="italic" font-weight="normal" text-decoration="normal" x="373" y="371.5" text-anchor="start" stroke-miterlimit="2" stroke-width="3" stroke-dasharray="">p</text><text fill="#000000" stroke="none" font-family="Times" font-size="24px" font-style="italic" font-weight="normal" text-decoration="normal" x="373" y="371.5" text-anchor="start">p</text></g><g class="dcg-svg-axis-label" transform="translate(29.45458984375,102.841796875) rotate(-90,0,0)"><text fill="none" stroke="#ffffff" font-family="Arial" font-size="20px" font-style="normal" font-weight="normal" text-decoration="normal" x="0" y="0" text-anchor="start" stroke-miterlimit="2" stroke-width="3" stroke-dasharray="">$price_a$</text><text fill="#000000" stroke="none" font-family="Arial" font-size="20px" font-style="normal" font-weight="normal" text-decoration="normal" x="0" y="0" text-anchor="start">$price_a$</text></g></g></g><g id="expressions-1a490071"><g id="sketch-1a490071"><title>表达式1</title><path fill="#000000" stroke="none" paint-order="stroke fill markers" d="" fill-opacity="0.4"/><g><path fill="none" stroke="#000000" class="dcg-svg-curve" paint-order="fill stroke markers" d=" M 0 360 L 0 360 L 12.98828125 357.27011316957913 L 25.1953125 354.44144441870753 L 36.71875 351.50533009596484 L 47.55859375 348.4764091126821 L 57.8125 345.34225725068285 L 67.578125 342.08370328127137 L 76.7578125 338.747488613649 L 85.546875 335.2755835037228 L 93.9453125 331.674644032207 L 101.953125 327.95384158208356 L 109.5703125 324.12513019131507 L 116.89453125 320.14843052897 L 123.92578125 316.02920396314835 L 130.6640625 311.7750616441274 L 137.20703125 307.32715586770166 L 143.5546875 302.68261204232795 L 149.70703125 297.8395787832154 L 155.6640625 292.79741035309246 L 161.42578125 287.55686299281416 L 167.08984375 282.0214319932844 L 172.65625 276.1734037151191 L 178.02734375 270.1084151468036 L 183.30078125 263.7095947754257 L 188.57421875 256.82602392673704 L 193.65234375 249.69241633777693 L 198.53515625 242.31824996845606 L 203.22265625 234.71639133299263 L 207.71484375 226.90343286919835 L 212.01171875 218.9000128183505 L 216.2109375 210.5299153793249 L 220.3125 201.78147448015125 L 224.21875 192.87387654320986 L 228.02734375 183.59804728677148 L 231.73828125 173.94749066014444 L 235.3515625 163.91698292687386 L 238.8671875 153.50279522497704 L 242.3828125 142.3840036606582 L 245.80078125 130.83683446566135 L 249.12109375 118.85981923105123 L 252.44140625 106.06523263550201 L 255.6640625 92.79306234332682 L 258.7890625 79.04562402315543 L 261.9140625 64.35431500313092 L 264.94140625 49.138652441667205 L 267.96875 32.864395504359095 L 270.8984375 16.012597242979837 L 273.828125 -2.0266656442599924 L 274.5057265030584 -6.5" stroke-linecap="round" stroke-linejoin="round" stroke-miterlimit="10" stroke-width="3.5" stroke-dasharray=""/></g></g><g id="sketch-1a490071"><title>表达式4</title><path fill="#388c46" stroke="none" paint-order="stroke fill markers" d="" fill-opacity="0.4"/><g><path fill="none" stroke="#388c46" class="dcg-svg-curve" paint-order="fill stroke markers" d=" M 25.2446120089097 -6.5 L 25.2446120089097 -6.5 L 26.66015625 13.812062674212825 L 28.3203125 34.826824940438655 L 30.078125 54.53427755434092 L 31.8359375 72.05070687194655 L 33.69140625 88.54200020845434 L 35.546875 103.29652644765184 L 37.5 117.23447585516556 L 39.453125 129.77682530046218 L 41.50390625 141.65959572468455 L 43.65234375 152.89344680241516 L 45.80078125 163.05625350722448 L 48.046875 172.69145380458014 L 50.390625 181.81096518110937 L 52.734375 190.10111223584542 L 55.17578125 197.96831590727876 L 57.71484375 205.42360792764495 L 60.3515625 212.4799989949585 L 63.0859375 219.1518642077264 L 65.91796875 225.45444141728527 L 68.9453125 231.59256927965092 L 72.0703125 237.35953931143672 L 75.390625 242.93213735236893 L 78.90625 248.28711055494318 L 82.6171875 253.4074412655973 L 86.5234375 258.281386384169 L 90.52734375 262.796978332695 L 94.62890625 266.9809042781486 L 98.828125 270.85703072845683 L 103.125 274.4466954993271 L 107.6171875 277.83909008572493 L 112.3046875 281.03065608777115 L 117.08984375 283.96260482854336 L 122.0703125 286.70239206177365 L 127.24609375 289.2483263195154 L 132.71484375 291.63940144896884 L 138.37890625 293.8248005303698 L 144.23828125 295.8043338210871 L 150.390625 297.60374361313325 L 156.73828125 299.1869195795855 L 163.37890625 300.57026216426107 L 170.21484375 301.72425717922624 L 177.24609375 302.643772971779 L 184.375 303.31377803743317 L 191.69921875 303.73808561046013 L 199.0234375 303.9016127398095 L 206.34765625 303.8070069227239 L 213.671875 303.4527381485633 L 220.8984375 302.8430847330558 L 228.02734375 301.97893686543193 L 234.9609375 300.8749722733993 L 241.69921875 299.53670193851156 L 248.14453125 297.99285537373817 L 254.39453125 296.2279781722349 L 260.3515625 294.27700275412207 L 266.11328125 292.11484545794866 L 271.58203125 289.7854561055286 L 276.85546875 287.2549458269199 L 281.93359375 284.52377855374607 L 286.81640625 281.5927575900819 L 291.50390625 278.463351790383 L 295.99609375 275.1380522580471 L 300.29296875 271.62076388038497 L 304.4921875 267.82458465974327 L 308.59375 263.7292274423076 L 312.5 259.42513942513943 L 316.40625 254.67281057450666 L 320.21484375 249.5465412141131 L 323.828125 244.16804296177034 L 327.24609375 238.55115261987694 L 330.46875 232.71565453412614 L 333.49609375 226.68832105045752 L 336.42578125 220.28040360359287 L 339.16015625 213.71717327744076 L 341.796875 206.78032586757422 L 344.3359375 199.45654822807998 L 346.77734375 191.7339525807485 L 349.12109375 183.60267895776533 L 351.3671875 175.05561978863744 L 353.61328125 165.66157052268767 L 355.76171875 155.76478871739852 L 357.8125 145.36011023153185 L 359.86328125 133.8745950141527 L 361.81640625 121.7720987811175 L 363.76953125 108.34766168690442 L 365.625 94.16502749836081 L 367.3828125 79.22509029768196 L 369.140625 62.56761080952356 L 370.80078125 44.979146324602084 L 372.4609375 25.254995369578808 L 374.0234375 4.373623117610975 L 374.7443048284687 -6.5" stroke-linecap="round" stroke-linejoin="round" stroke-miterlimit="10" stroke-width="3.5" stroke-dasharray=""/></g></g><g id="sketch-1a490071"><title>表达式7</title><path fill="#388c46" stroke="none" paint-order="stroke fill markers" d="" fill-opacity="0.4"/><g><path fill="none" stroke="#388c46" class="dcg-svg-curve" paint-order="fill stroke markers" d=" M 16.424239075032965 -6.5 L 16.50390625 -4.47554858414594 M 16.50390625 -4.47554858414594 L 17.12082936421769 8.884196577559138 M 17.572889691646598 18.673764569067487 L 17.87109375 25.13150643993191 M 17.87109375 25.13150643993191 L 18.351544640701086 34.05395688180657 M 18.878485914780516 43.83977993833439 L 19.23828125 50.52153682513932 M 19.23828125 50.52153682513932 L 19.78068671031386 59.213191880139405 M 20.391071391417228 68.99416476329752 L 20.703125 73.99459806074265 M 20.703125 73.99459806074265 L 21.448650944465122 84.35765508867328 M 22.151852800745555 94.13239330252452 L 22.16796875 94.35641032355909 M 22.16796875 94.35641032355909 L 23.41572424074079 109.48043074549156 M 24.290462140656132 119.24115621149093 L 25.29296875 129.8852405404399 M 25.29296875 129.8852405404399 L 25.794143790331404 134.5673033415418 M 26.83719197893511 144.3116376172248 L 26.953125 145.3947036952728 M 26.953125 145.3947036952728 L 28.61328125 159.09493403357686 M 28.61328125 159.09493403357686 L 28.682370628060003 159.60053178618944 M 30.009199285103623 169.31029623826797 L 30.37109375 171.95864875311668 M 30.37109375 171.95864875311668 L 32.12890625 183.405033150629 M 32.12890625 183.405033150629 L 32.32324578093688 184.5349064400082 M 33.98447353070148 194.19308019777895 L 35.9375 204.33364433662996 M 35.9375 204.33364433662996 L 37.0037745037609 209.2933985303433 M 39.18911465181736 218.84597705395387 L 39.94140625 221.99039644346124 M 39.94140625 221.99039644346124 L 42.08984375 230.06273300772654 M 42.08984375 230.06273300772654 L 43.17193100327478 233.71948392099424 M 46.11215966364325 243.0669417580654 L 46.58203125 244.49909660347237 M 46.58203125 244.49909660347237 L 48.92578125 250.95985719798233 M 48.92578125 250.95985719798233 L 51.3671875 257.04942113727617 M 51.3671875 257.04942113727617 L 51.553428940081545 257.4692199660664 M 55.66110314607467 266.3648418825819 L 56.73828125 268.5567112179668 M 56.73828125 268.5567112179668 L 59.66796875 273.934605874604 M 59.66796875 273.934605874604 L 62.6953125 278.94505986106674 M 62.6953125 278.94505986106674 L 63.24076520907224 279.75877290298257 M 68.90297574147505 287.75366541510925 L 69.43359375 288.46488873930866 M 69.43359375 288.46488873930866 L 73.14453125 292.92148280168794 M 73.14453125 292.92148280168794 L 76.953125 297.0211209251223 M 76.953125 297.0211209251223 L 79.19483890275893 299.187665348241 M 86.58143345006401 305.61859347450223 L 89.0625 307.5574363043287 M 89.0625 307.5574363043287 L 93.45703125 310.6413446235265 M 93.45703125 310.6413446235265 L 98.046875 313.5297567814125 M 98.046875 313.5297567814125 L 99.31843451827541 314.24621395022945 M 107.98561706524688 318.8140771036073 L 113.28125 321.1819223903035 M 113.28125 321.1819223903035 L 118.9453125 323.4223912564714 M 118.9453125 323.4223912564714 L 122.25843405428994 324.5753936252037 M 131.60437275741498 327.5171604372312 L 137.98828125 329.19286145184526 M 137.98828125 329.19286145184526 L 145.1171875 330.78813343440436 M 145.1171875 330.78813343440436 L 146.58621895684823 331.06347015023346 M 156.23877099105553 332.7497683462602 L 160.44921875 333.3953168006483 M 160.44921875 333.3953168006483 L 168.65234375 334.3881202455085 M 168.65234375 334.3881202455085 L 171.518107489222 334.6462647478954 M 181.28783163272348 335.40238563937555 L 185.9375 335.682021713795 M 185.9375 335.682021713795 L 194.921875 335.9587136177116 M 194.921875 335.9587136177116 L 196.67516769444333 335.9620044175704 M 206.47421928276674 335.90624810448975 L 212.890625 335.73302177702016 M 212.890625 335.73302177702016 L 221.77734375 335.23209110704954 M 221.77734375 335.23209110704954 L 221.85747547604302 335.22516518136104 M 231.61716668898424 334.3429442931432 L 238.671875 333.51424053768085 M 238.671875 333.51424053768085 L 246.6796875 332.31274843538034 M 246.6796875 332.31274843538034 L 246.87571864554855 332.27658725068864 M 256.4974292119539 330.42138188788266 L 261.5234375 329.31079864033427 M 261.5234375 329.31079864033427 L 268.359375 327.5341721413793 M 268.359375 327.5341721413793 L 271.413268460408 326.6132796145012 M 280.7181705382021 323.54364102296614 L 280.859375 323.4947627624889 M 280.859375 323.4947627624889 L 286.62109375 321.2229790743162 M 286.62109375 321.2229790743162 L 291.9921875 318.8266324759445 M 291.9921875 318.8266324759445 L 294.8304901381171 317.40208229184896 M 303.3841793795471 312.6291869377267 L 306.54296875 310.6413446235265 M 306.54296875 310.6413446235265 L 310.9375 307.5574363043287 M 310.9375 307.5574363043287 L 315.13671875 304.2759341759314 M 315.13671875 304.2759341759314 L 315.86873103149117 303.639787409046 M 323.066618142652 296.9946987851265 L 326.66015625 293.14279276858554 M 326.66015625 293.14279276858554 L 330.2734375 288.83500224454065 M 330.2734375 288.83500224454065 L 332.9858238107364 285.23233211230695 M 338.4243722149862 277.0853961112839 L 340.234375 274.10447010798197 M 340.234375 274.10447010798197 L 343.1640625 268.7452174610346 M 343.1640625 268.7452174610346 L 345.7318395897895 263.53919781623114 M 349.6337363288917 254.55142799038822 L 350.9765625 251.2153633656803 M 350.9765625 251.2153633656803 L 353.3203125 244.7815224204408 M 353.3203125 244.7815224204408 L 354.8715165222235 240.07414072129328 M 357.7294642537148 230.7008991557042 L 359.86328125 222.76048027942568 M 359.86328125 222.76048027942568 L 361.5495318058244 215.78349151000023 M 363.66550096667766 206.2150118625801 L 363.8671875 205.28684046365203 M 363.8671875 205.28684046365203 L 365.72265625 195.78814982179466 M 365.72265625 195.78814982179466 L 366.5456741513441 191.08770706456335 M 368.16775103526084 181.4232680787611 L 369.3359375 173.95822653063283 M 369.3359375 173.95822653063283 L 370.4225395183255 166.1897437112747 M 371.6960450733183 156.4731122585125 L 372.65625 148.76885294998502 M 372.65625 148.76885294998502 L 373.49650542699305 141.17908856720774 M 374.53438574076023 131.4343748740673 L 375.78125 118.71075045268594 M 375.78125 118.71075045268594 L 376.0064899680616 116.10503960725114 M 376.8504634746191 106.34144863260309 L 377.24609375 101.76456066634154 M 377.24609375 101.76456066634154 L 378.06441802623334 90.98954586474692 M 378.794674080371 81.21684067899177 L 379.8159707023619 65.85074315197113 M 380.41612717996543 56.06922324094082 L 381.3063658339565 40.69497610038333 M 381.8163138097724 30.908306076382882 L 382.58877352839005 15.527691459823725 M 383.03032609350424 5.737688054273077 L 383.56066744260943 -6.5" stroke-linecap="round" stroke-linejoin="round" stroke-miterlimit="10" stroke-width="3.5" stroke-dasharray=""/></g></g><g id="sketch-1a490071"><title>表达式8</title><path fill="#388c46" stroke="none" paint-order="stroke fill markers" d="" fill-opacity="0.4"/><g><path fill="none" stroke="#388c46" class="dcg-svg-curve" paint-order="fill stroke markers" d=" M 43.84909005327658 -10 L 43.86634009567337 -9.86106679289202 M 45.24634348741624 1.2535897757464465 L 45.26359352981303 1.3925229828544272 M 46.77633539607102 12.489862919161938 L 46.79530563199841 12.628571715382146 M 48.395583938362236 23.713410968872623 L 48.416394658849306 23.85185559286651 M 50.116622897696324 34.92185116507461 L 50.139400604465685 35.0599857953247 M 51.96239842940143 46.1106212826494 L 51.98727170116193 46.24839399530299 M 53.97713344200149 57.27021100759016 L 54.002006713761986 57.407983720243756 M 56.14697076301156 68.40047181781871 L 56.17412009186082 68.53781414175069 M 58.48919787426135 79.49559305256585 L 58.51876414511885 79.63243542768255 M 61.03152677412652 90.54651631258577 L 61.063651086623736 90.68278086610788 M 63.794694119732675 101.54427186356084 L 63.82952108473141 101.67987084036 M 66.80832673651071 112.47614292699906 L 66.84599922432692 112.61097906333401 M 70.13697611124584 123.31606916151227 L 70.1809397919125 123.44898716173135 M 73.79505847863415 134.04892716701255 L 73.84247018584364 134.180654650931 M 77.80807113482383 144.65398008003282 L 77.85912966097922 144.7843373848026 M 82.25773899492147 155.0828046281487 L 82.31665914453068 155.20980232879728 M 87.19134517888851 165.29160765178028 L 87.25445605303916 165.41657571795696 M 92.6652726487528 175.21983950734548 L 92.73737871457121 175.33984248760927 M 98.7226495261273 184.80383641970744 L 98.79950535091459 184.92085429097617 M 105.4705275373356 193.91332249186217 L 105.5573777104659 194.02312707932208 M 112.88436394842775 202.48704091505735 L 112.9811183302766 202.588226831039 M 121.00461235688151 210.39518628442337 L 121.11063794165105 210.48661152915523 M 129.82626374686282 217.5125235040431 L 129.94059145405004 217.5933268169041 M 139.29711975573088 223.73933628789564 L 139.41870562811278 223.8087400027611 M 149.33665429624043 228.99940980863897 L 149.4643388022078 229.05682641717578 M 159.8437323015744 233.24893926759023 L 159.97632526887188 233.29387372011 M 170.7123425587694 236.46335384013864 L 170.8485719242038 236.4956270487386 M 181.83561647751145 238.63967189782707 L 181.9742483869883 238.65919607962303 M 193.11240124072623 239.7805291308122 L 193.25223656225918 239.78731756596162 M 204.4462677840714 239.89142271840157 L 204.58614291883598 239.8855111471554 M 215.74325215046184 238.97209439097486 L 215.88199877872123 238.9534028649094 M 226.90805966906925 237.02002836678804 L 227.04447494348514 236.98855023301172 M 237.83975250258345 234.02747213259275 L 237.97261895330493 233.98335290466795 M 248.43243075381747 229.99708230390345 L 248.56048583349656 229.94049700043706 M 258.579017074238 224.94828957663196 L 258.70107645875254 224.87972204311995 M 268.17727658965157 218.92196013978614 L 268.29218230553363 218.84198091462343 M 277.14354674098826 211.98987595432502 L 277.25024949122866 211.89924194806284 M 285.42261850419635 204.2494180402503 L 285.52030078964594 204.1491276064625 M 292.9971975882754 195.81710738558505 L 293.08517437175163 195.70820336559873 M 299.88717963034196 186.8138220568492 L 299.97012285757046 186.70103721275694 M 306.07290502830426 177.3127693820738 L 306.1459513032017 177.19333638109163 M 311.68610099031577 167.46250761132495 L 311.7500915435086 167.33798769684506 M 316.717247087466 157.30142278447687 L 316.7770400940513 157.17483369978356 M 321.276941164174 146.9202509886364 L 321.32884728876434 146.79022885886607 M 325.371529963083 136.34639654186014 L 325.41977201450294 136.21497088045874 M 329.10492475029844 125.63955407120382 L 329.1496991995541 125.50690698795714 M 332.50300886753917 114.82124194811392 L 332.54144806613897 114.68662238040177 M 335.57493557411004 103.90564186665263 L 335.61050567153416 103.7702359281963 M 338.39029377141316 92.92117545470292 L 338.4231366357409 92.78508230181583 M 340.978683827684 81.88100181549558 L 341.0089433173447 81.74431105763144 M 343.3623341078798 70.79475343405753 L 343.39019976621955 70.6575546545976 M 345.5629019006147 59.6706498198537 L 345.5885085727114 59.53301153177901 M 347.6062197167191 48.51645962711342 L 347.629701380818 48.37844291996842 M 349.5082345087263 37.337106348368444 L 349.51171875 37.31662724154387 M 349.51171875 37.31662724154387 L 349.53005299089835 37.19881875280298 M 351.2523488689108 26.132035258554016 L 351.27387756738597 25.993700464875904 M 352.882496554188 14.909995040341041 L 352.90219345325 14.771387565191464 M 354.4197350313627 3.674883860255682 L 354.43771898422733 3.5360437455936644 M 355.874917125482 -7.571353182569227 L 355.8913007922949 -7.710391218594494" stroke-linecap="round" stroke-linejoin="round" stroke-miterlimit="10" stroke-width="7" stroke-dasharray=""/></g></g></g><g id="labels-1a490071"/><g id="labels-1a490071"/></g></svg>