<svg version="1.1" xmlns="http://www.w3.org/2000/svg" xmlns:xlink="http://www.w3.org/1999/xlink" width="800" height="800"><defs/><g transform="scale(2,2)"><g id="background-d2ac58fb"><rect fill="white" stroke="none" x="0" y="0" width="400" height="400" class="dcg-svg-background"/></g><g id="graphpaper-d2ac58fb"><g id="axis-d2ac58fb"><g id="yaxis-d2ac58fb"><title>$price_a$</title><g><path fill="none" stroke="rgb(0,0,0)" class="dcg-svg-axis-line" paint-order="fill stroke markers" d=" M 0 4 L 0 400" stroke-opacity="0.9" stroke-miterlimit="10" stroke-width="2" stroke-dasharray=""/><g class="dcg-svg-axis-line"><path fill="rgb(0,0,0)" stroke="rgb(0,0,0)" class="dcg-svg-axis-line" paint-order="stroke fill markers" d=" M 0 2 L 4.141104721640332 17.45481322062509 L -4.14110472164033 17.45481322062509 L 0 2 L 4.141104721640332 17.45481322062509" stroke-opacity="0.9" stroke-linejoin="round" stroke-miterlimit="10" stroke-width="2" stroke-dasharray="" fill-opacity="0.9"/></g></g></g><g id="xaxis-d2ac58fb"><title>p</title><g><path fill="none" stroke="rgb(0,0,0)" class="dcg-svg-axis-line" paint-order="fill stroke markers" d=" M 0 400 L 396 400" stroke-opacity="0.9" stroke-miterlimit="10" stroke-width="2" stroke-dasharray=""/><g class="dcg-svg-axis-line"><path fill="rgb(0,0,0)" stroke="rgb(0,0,0)" class="dcg-svg-axis-line" paint-order="stroke fill markers" d=" M 398 400 L 382.5451867793749 404.1411047216403 L 382.5451867793749 395.8588952783597 L 398 400 L 382.5451867793749 404.1411047216403" stroke-opacity="0.9" stroke-linejoin="round" stroke-miterlimit="10" stroke-width="2" stroke-dasharray="" fill-opacity="0.9"/></g></g></g><g><g class="dcg-svg-axis-value"><text fill="none" stroke="#ffffff" font-family="Arial" font-size="17px" font-style="normal" font-weight="normal" text-decoration="normal" x="-9.727294921875" y="418.124" text-anchor="middle" stroke-miterlimit="2" stroke-width="3" stroke-dasharray="">0</text><text fill="#000000" stroke="none" font-family="Arial" font-size="17px" font-style="normal" font-weight="normal" text-decoration="normal" x="-9.727294921875" y="418.124" text-anchor="middle">0</text></g><g><path fill="none" stroke="rgb(0,0,0)" class="dcg-svg-tickmark" paint-order="fill stroke markers" d=" M 198 396 L 198 404 M 396 396 L 396 404 M -4 240 L 4 240 M -4 81 L 4 81" stroke-opacity="0.9" stroke-miterlimit="2" stroke-width="2" stroke-dasharray=""/></g><g class="dcg-svg-axis-value"><text fill="none" stroke="#ffffff" font-family="Arial" font-size="17px" font-style="normal" font-weight="normal" text-decoration="normal" x="198.01980198019803" y="393.124" text-anchor="middle" stroke-miterlimit="2" stroke-width="3" stroke-dasharray="">0.5</text><text fill="rgb(150,150,150)" stroke="none" font-family="Arial" font-size="17px" font-style="normal" font-weight="normal" text-decoration="normal" x="198.01980198019803" y="393.124" text-anchor="middle" fill-opacity="1">0.5</text></g><g class="dcg-svg-axis-value dcg-svg-offcenter-axis-value"><text fill="none" stroke="#ffffff" font-family="Arial" font-size="17px" font-style="normal" font-weight="normal" text-decoration="normal" x="392.272705078125" y="393.124" text-anchor="middle" stroke-miterlimit="2" stroke-width="3" stroke-dasharray="">1</text><text fill="rgb(150,150,150)" stroke="none" font-family="Arial" font-size="17px" font-style="normal" font-weight="normal" text-decoration="normal" x="392.272705078125" y="393.124" text-anchor="middle" fill-opacity="1">1</text></g><g class="dcg-svg-axis-value"><text fill="none" stroke="#ffffff" font-family="Arial" font-size="17px" font-style="normal" font-weight="normal" text-decoration="normal" x="7.727294921875" y="244.9433612774451" text-anchor="middle" stroke-miterlimit="2" stroke-width="3" stroke-dasharray="">2</text><text fill="rgb(150,150,150)" stroke="none" font-family="Arial" font-size="17px" font-style="normal" font-weight="normal" text-decoration="normal" x="7.727294921875" y="244.9433612774451" text-anchor="middle" fill-opacity="1">2</text></g><g class="dcg-svg-axis-value"><text fill="none" stroke="#ffffff" font-family="Arial" font-size="17px" font-style="normal" font-weight="normal" text-decoration="normal" x="7.727294921875" y="85.26272255489019" text-anchor="middle" stroke-miterlimit="2" stroke-width="3" stroke-dasharray="">4</text><text fill="rgb(150,150,150)" stroke="none" font-family="Arial" font-size="17px" font-style="normal" font-weight="normal" text-decoration="normal" x="7.727294921875" y="85.26272255489019" text-anchor="middle" fill-opacity="1">4</text></g></g><g class="dcg-svg-axis-label"><text fill="none" stroke="#ffffff" font-family="Times" font-size="24px" font-style="italic" font-weight="normal" text-decoration="normal" x="373" y="371.5" text-anchor="start" stroke-miterlimit="2" stroke-width="3" stroke-dasharray="">p</text><text fill="#000000" stroke="none" font-family="Times" font-size="24px" font-style="italic" font-weight="normal" text-decoration="normal" x="373" y="371.5" text-anchor="start">p</text></g><g class="dcg-svg-axis-label" transform="translate(29.45458984375,102.841796875) rotate(-90,0,0)"><text fill="none" stroke="#ffffff" font-family="Arial" font-size="20px" font-style="normal" font-weight="normal" text-decoration="normal" x="0" y="0" text-anchor="start" stroke-miterlimit="2" stroke-width="3" stroke-dasharray="">$price_a$</text><text fill="#000000" stroke="none" font-family="Arial" font-size="20px" font-style="normal" font-weight="normal" text-decoration="normal" x="0" y="0" text-anchor="start">$price_a$</text></g></g></g><g id="expressions-d2ac58fb"><g id="sketch-d2ac58fb"><title>表达式1</title><path fill="#000000" stroke="none" paint-order="stroke fill markers" d="" fill-opacity="0.4"/><g><path fill="none" stroke="#000000" class="dcg-svg-curve" paint-order="fill stroke markers" d=" M 0 360.07984031936127 L 0 360.07984031936127 L 12.890625 357.3485146917419 L 25 354.51910845503176 L 36.42578125 351.5831253869947 L 47.16796875 348.55559089985024 L 57.32421875 345.42425693771634 L 66.9921875 342.1700876083584 L 76.171875 338.80320876924554 L 84.86328125000001 335.33691561112744 L 93.1640625 331.74395850506784 L 101.07421875 328.0339945069444 L 108.69140625000001 324.1679930876395 L 115.91796875000001 320.2049044455477 L 122.94921875 316.04304387132515 L 129.6875 311.7413578703408 L 136.1328125 307.30970827099975 L 142.3828125 302.68573306115354 L 148.4375 297.86823354540434 L 154.296875 292.8572808461273 L 160.05859375 287.5614094527972 L 165.625 282.06315611790853 L 171.09375 276.25902919398635 L 176.46484375 270.1312469591893 L 181.73828125000003 263.66109499242214 L 186.91406250000003 256.82890451061303 L 191.9921875 249.6140359491635 L 196.875 242.1497802477939 L 201.46484375000003 234.61485548898924 L 205.95703125000003 226.70545101209964 L 210.25390625000003 218.59679770885032 L 214.35546875 210.3139063911164 L 218.35937500000003 201.6686835694106 L 222.26562500000003 192.6519219984966 L 226.07421875000003 183.25527379196393 L 229.78515625000003 173.47144235025615 L 233.39843750000003 163.2943937474753 L 236.91406250000003 152.71958780340924 L 240.33203125000003 141.74422868012778 L 243.75 130.02161793561646 L 247.07031250000003 117.85263377349747 L 250.29296875000003 105.23736477371881 L 253.515625 91.75671237915759 L 256.640625 77.78161291308982 L 259.765625 62.83411044616889 L 262.79296875 47.33935042240904 L 265.8203125 30.75140715189127 L 268.75 13.558611058114991 L 271.6796875 -4.863533940894342 L 271.92246768471114 -6.5" stroke-linecap="round" stroke-linejoin="round" stroke-miterlimit="10" stroke-width="3.5" stroke-dasharray=""/></g></g><g id="sketch-d2ac58fb"><title>表达式4</title><path fill="#388c46" stroke="none" paint-order="stroke fill markers" d="" fill-opacity="0.4"/><g><path fill="none" stroke="#388c46" class="dcg-svg-curve" paint-order="fill stroke markers" d=" M 24.932483928850854 -6.5 L 24.932483928850854 -6.5 L 25 -5.410498176834494 L 26.660156250000004 18.12621216005175 L 28.3203125 38.88892246373405 L 30.078125 58.359669644864255 L 31.8359375 75.6653787849566 L 33.69140625 91.95793711511226 L 35.546875 106.5343122435898 L 37.50000000000001 120.30360751716728 L 39.453125 132.6938277398105 L 41.50390625 144.43208880846066 L 43.65234375000001 155.52891415466294 L 45.80078125 165.56735011891084 L 48.046875 175.0842072108637 L 50.390625 184.09124967198068 L 52.734375 192.27869347920844 L 55.17578125 200.04794788910297 L 57.71484375 207.40989935426714 L 60.3515625 214.3773885196359 L 63.08593750000001 220.96460283496955 L 65.91796875 227.18658072895127 L 68.94531250000001 233.24550178646336 L 72.0703125 238.93728493800654 L 75.390625 244.43637237341855 L 78.90625 249.7197384313202 L 82.6171875 254.77051209845442 L 86.5234375 259.57702684683034 L 90.52734375 264.0288263048303 L 94.62890625000001 268.1522313461138 L 98.828125 271.97077034810667 L 103.22265625 275.58176759176786 L 107.71484375 278.91292965565293 L 112.40234375 282.0449284460201 L 117.28515625 284.9754850065415 L 122.265625 287.6537121873681 L 127.5390625 290.18368133602354 L 133.00781250000003 292.509551927484 L 138.671875 294.6310168424443 L 144.62890625 296.57717130995036 L 150.78125 298.3086252591148 L 157.12890625 299.82402386344756 L 163.76953125 301.1381108357822 L 170.60546875 302.22166421108 L 177.63671875 303.068674118088 L 184.765625 303.66411751648576 L 191.9921875 304.0067689613682 L 199.31640625 304.0916004676893 L 206.640625 303.9135989785885 L 213.86718750000003 303.4775160496745 L 220.99609375000003 302.7869305575166 L 227.92968750000003 301.85661347160885 L 234.765625 300.6754835692585 L 241.30859375 299.2824582354267 L 247.65625000000003 297.665801813303 L 253.80859375000003 295.82712515045847 L 259.66796875 293.8028557531137 L 265.33203125 291.56616057298584 L 270.703125 289.16306497843743 L 275.87890625 286.55788100436115 L 280.85937500000006 283.75121981573795 L 285.64453125 280.74415790614717 L 290.234375 277.5385810497992 L 294.62890625 274.13756116359855 L 298.92578125 270.45792645436154 L 303.02734375 266.57621699219703 L 307.03125 262.39255962362887 L 310.9375 257.88436253950067 L 314.74609375 253.02649827331086 L 318.45703125 247.79102976329 L 321.97265625000006 242.30721301740806 L 325.29296875 236.59144039499625 L 328.41796875 230.66657689398465 L 331.34765625 224.5630222307335 L 334.17968750000006 218.08609805778397 L 336.9140625 211.2178196624266 L 339.45312500000006 204.22249718228062 L 341.89453125000006 196.8559195444531 L 344.33593750000006 188.77195746208545 L 346.6796875 180.238072972551 L 348.92578125 171.2432782679082 L 351.07421875 161.78011498686112 L 353.22265625 151.3485418438663 L 355.2734375 140.34741210649196 L 357.2265625 128.7724216649333 L 359.17968750000006 115.9536897468912 L 361.03515625000006 102.43452335053263 L 362.890625 87.38532413191228 L 364.6484375 71.47119332910268 L 366.40625 53.652876211021976 L 368.06640625 34.75273603094138 L 369.62890625 14.779433635648047 L 371.1066544821277 -6.5" stroke-linecap="round" stroke-linejoin="round" stroke-miterlimit="10" stroke-width="3.5" stroke-dasharray=""/></g></g></g><g id="labels-d2ac58fb"/><g id="labels-d2ac58fb"/></g></svg>